<?xml version="1.0" encoding="UTF-8" standalone="no"?>
<!DOCTYPE svg PUBLIC "-//W3C//DTD SVG 1.1//EN"
 "http://www.w3.org/Graphics/SVG/1.1/DTD/svg11.dtd">
<!-- Generated by graphviz version 12.2.1 (0)
 -->
<!-- Title: SocketStateMachine Pages: 1 -->
<svg width="755pt" height="214pt"
 viewBox="0.00 0.00 755.25 214.25" xmlns="http://www.w3.org/2000/svg" xmlns:xlink="http://www.w3.org/1999/xlink">
<g id="graph0" class="graph" transform="scale(1 1) rotate(0) translate(4 210.25)">
<title>SocketStateMachine</title>
<!-- Fresh -->
<g id="node1" class="node">
<title>Fresh</title>
<path fill="#eff6ff" stroke="#3b82f6" stroke-width="2" d="M42,-145C42,-145 12,-145 12,-145 6,-145 0,-139 0,-133 0,-133 0,-121 0,-121 0,-115 6,-109 12,-109 12,-109 42,-109 42,-109 48,-109 54,-115 54,-121 54,-121 54,-133 54,-133 54,-139 48,-145 42,-145"/>
<text text-anchor="middle" x="27" y="-121.58" font-family="Segoe UI,Arial,sans-serif" font-size="14.00" fill="#1e40af">Fresh</text>
</g>
<!-- Bound -->
<g id="node2" class="node">
<title>Bound</title>
<path fill="#eff6ff" stroke="#3b82f6" stroke-width="2" d="M168.25,-145C168.25,-145 137.25,-145 137.25,-145 131.25,-145 125.25,-139 125.25,-133 125.25,-133 125.25,-121 125.25,-121 125.25,-115 131.25,-109 137.25,-109 137.25,-109 168.25,-109 168.25,-109 174.25,-109 180.25,-115 180.25,-121 180.25,-121 180.25,-133 180.25,-133 180.25,-139 174.25,-145 168.25,-145"/>
<text text-anchor="middle" x="152.75" y="-121.58" font-family="Segoe UI,Arial,sans-serif" font-size="14.00" fill="#1e40af">Bound</text>
</g>
<!-- Fresh&#45;&gt;Bound -->
<g id="edge1" class="edge">
<title>Fresh&#45;&gt;Bound</title>
<path fill="none" stroke="#334155" stroke-width="1.5" d="M54.85,-127C71.68,-127 93.67,-127 112.44,-127"/>
<polygon fill="#334155" stroke="#334155" stroke-width="1.5" points="112.25,-130.5 122.25,-127 112.25,-123.5 112.25,-130.5"/>
<text text-anchor="middle" x="89.62" y="-129.85" font-family="Segoe UI,Arial,sans-serif" font-size="12.00" fill="#334155"> &#160;bind &#160;</text>
</g>
<!-- Connected -->
<g id="node4" class="node">
<title>Connected</title>
<path fill="#dbeafe" stroke="#2563eb" stroke-width="2.5" d="M492.75,-36C492.75,-36 435.5,-36 435.5,-36 429.5,-36 423.5,-30 423.5,-24 423.5,-24 423.5,-12 423.5,-12 423.5,-6 429.5,0 435.5,0 435.5,0 492.75,0 492.75,0 498.75,0 504.75,-6 504.75,-12 504.75,-12 504.75,-24 504.75,-24 504.75,-30 498.75,-36 492.75,-36"/>
<text text-anchor="middle" x="464.12" y="-12.57" font-family="Segoe UI,Arial,sans-serif" font-size="14.00" fill="#1e40af">Connected</text>
</g>
<!-- Fresh&#45;&gt;Connected -->
<g id="edge4" class="edge">
<title>Fresh&#45;&gt;Connected</title>
<path fill="none" stroke="#334155" stroke-width="1.5" d="M54.77,-119.31C74.27,-113.78 101.34,-106.22 125.25,-100 226.03,-73.79 344.42,-45.67 410.91,-30.11"/>
<polygon fill="#334155" stroke="#334155" stroke-width="1.5" points="411.56,-33.56 420.5,-27.87 409.97,-26.74 411.56,-33.56"/>
<text text-anchor="middle" x="225.25" y="-83.87" font-family="Segoe UI,Arial,sans-serif" font-size="12.00" fill="#334155"> &#160;connect &#160;</text>
</g>
<!-- Closed -->
<g id="node5" class="node">
<title>Closed</title>
<path fill="#fef2f2" stroke="#dc2626" stroke-width="2" d="M735.25,-143C735.25,-143 701.25,-143 701.25,-143 695.25,-143 689.25,-137 689.25,-131 689.25,-131 689.25,-119 689.25,-119 689.25,-113 695.25,-107 701.25,-107 701.25,-107 735.25,-107 735.25,-107 741.25,-107 747.25,-113 747.25,-119 747.25,-119 747.25,-131 747.25,-131 747.25,-137 741.25,-143 735.25,-143"/>
<text text-anchor="middle" x="718.25" y="-119.58" font-family="Segoe UI,Arial,sans-serif" font-size="14.00" fill="#991b1b">Closed</text>
</g>
<!-- Fresh&#45;&gt;Closed -->
<g id="edge6" class="edge">
<title>Fresh&#45;&gt;Closed</title>
<path fill="none" stroke="#dc2626" stroke-width="1.5" stroke-dasharray="5,2" d="M48.61,-145.8C71.87,-165 111.71,-192 151.75,-192 151.75,-192 151.75,-192 465.12,-192 558.62,-192 583.41,-182.01 671.25,-150 673.43,-149.21 675.63,-148.32 677.82,-147.38"/>
<polygon fill="#dc2626" stroke="#dc2626" stroke-width="1.5" points="679.08,-150.65 686.61,-143.2 676.07,-144.33 679.08,-150.65"/>
<text text-anchor="middle" x="305.25" y="-194.85" font-family="Segoe UI,Arial,sans-serif" font-size="12.00" fill="#dc2626"> &#160;close &#160;</text>
</g>
<!-- Listening -->
<g id="node3" class="node">
<title>Listening</title>
<path fill="#eff6ff" stroke="#3b82f6" stroke-width="2" d="M328.25,-118C328.25,-118 282.25,-118 282.25,-118 276.25,-118 270.25,-112 270.25,-106 270.25,-106 270.25,-94 270.25,-94 270.25,-88 276.25,-82 282.25,-82 282.25,-82 328.25,-82 328.25,-82 334.25,-82 340.25,-88 340.25,-94 340.25,-94 340.25,-106 340.25,-106 340.25,-112 334.25,-118 328.25,-118"/>
<text text-anchor="middle" x="305.25" y="-94.58" font-family="Segoe UI,Arial,sans-serif" font-size="14.00" fill="#1e40af">Listening</text>
</g>
<!-- Bound&#45;&gt;Listening -->
<g id="edge2" class="edge">
<title>Bound&#45;&gt;Listening</title>
<path fill="none" stroke="#334155" stroke-width="1.5" d="M181.02,-121.16C186.7,-119.99 192.67,-118.8 198.25,-117.75 217.56,-114.13 238.93,-110.48 257.38,-107.44"/>
<polygon fill="#334155" stroke="#334155" stroke-width="1.5" points="257.79,-110.92 267.1,-105.86 256.66,-104.01 257.79,-110.92"/>
<text text-anchor="middle" x="225.25" y="-120.6" font-family="Segoe UI,Arial,sans-serif" font-size="12.00" fill="#334155"> &#160;listen &#160;</text>
</g>
<!-- Bound&#45;&gt;Closed -->
<g id="edge7" class="edge">
<title>Bound&#45;&gt;Closed</title>
<path fill="none" stroke="#dc2626" stroke-width="1.5" stroke-dasharray="5,2" d="M181.01,-130.55C186.7,-131.15 192.66,-131.69 198.25,-132 408.14,-143.75 461.63,-147.86 671.25,-132 673.01,-131.87 674.81,-131.71 676.62,-131.52"/>
<polygon fill="#dc2626" stroke="#dc2626" stroke-width="1.5" points="676.87,-135.02 686.36,-130.32 676.01,-128.07 676.87,-135.02"/>
<text text-anchor="middle" x="381.88" y="-144.73" font-family="Segoe UI,Arial,sans-serif" font-size="12.00" fill="#dc2626"> &#160;close &#160;</text>
</g>
<!-- Listening&#45;&gt;Connected -->
<g id="edge3" class="edge">
<title>Listening&#45;&gt;Connected</title>
<path fill="none" stroke="#334155" stroke-width="1.5" d="M341.07,-81.8C363.22,-70.22 392.18,-55.08 416.33,-42.46"/>
<polygon fill="#334155" stroke="#334155" stroke-width="1.5" points="417.79,-45.65 425.03,-37.91 414.55,-39.44 417.79,-45.65"/>
<text text-anchor="middle" x="381.88" y="-73.99" font-family="Segoe UI,Arial,sans-serif" font-size="12.00" fill="#334155"> &#160;accept &#160;</text>
</g>
<!-- Listening&#45;&gt;Closed -->
<g id="edge8" class="edge">
<title>Listening&#45;&gt;Closed</title>
<path fill="none" stroke="#dc2626" stroke-width="1.5" stroke-dasharray="5,2" d="M340.94,-102.11C416.44,-106.7 595.37,-117.59 676.27,-122.51"/>
<polygon fill="#dc2626" stroke="#dc2626" stroke-width="1.5" points="675.92,-125.99 686.12,-123.11 676.35,-119.01 675.92,-125.99"/>
<text text-anchor="middle" x="464.12" y="-114.52" font-family="Segoe UI,Arial,sans-serif" font-size="12.00" fill="#dc2626"> &#160;close &#160;</text>
</g>
<!-- Connected&#45;&gt;Connected -->
<g id="edge5" class="edge">
<title>Connected&#45;&gt;Connected</title>
<path fill="none" stroke="#3b82f6" stroke-width="1.5" d="M449.08,-36.89C447.22,-45.98 452.24,-54 464.12,-54 470.07,-54 474.29,-51.99 476.8,-48.85"/>
<polygon fill="#3b82f6" stroke="#3b82f6" stroke-width="1.5" points="480.22,-49.61 478.73,-39.12 473.35,-48.25 480.22,-49.61"/>
<text text-anchor="middle" x="464.12" y="-56.85" font-family="Segoe UI,Arial,sans-serif" font-size="12.00" fill="#3b82f6"> &#160;send / recv &#160;</text>
</g>
<!-- Connected&#45;&gt;Closed -->
<g id="edge9" class="edge">
<title>Connected&#45;&gt;Closed</title>
<path fill="none" stroke="#dc2626" stroke-width="1.5" stroke-dasharray="5,2" d="M505.68,-22.75C549.23,-29.29 619.17,-44.08 671.25,-75.75 680.35,-81.28 688.79,-89.1 695.89,-96.89"/>
<polygon fill="#dc2626" stroke="#dc2626" stroke-width="1.5" points="693.22,-99.15 702.37,-104.48 698.54,-94.6 693.22,-99.15"/>
<text text-anchor="start" x="522.75" y="-79.6" font-family="Segoe UI,Arial,sans-serif" font-size="12.00" fill="#dc2626">close </text>
<text text-anchor="start" x="554.25" y="-79.6" font-family="Segoe UI,Arial,sans-serif" font-style="italic" font-size="12.00" fill="#059669">(proof: state ≠ .closed)</text>
</g>
</g>
</svg>
